<svg xmlns="http://www.w3.org/2000/svg" xmlns:xlink="http://www.w3.org/1999/xlink" width="267px" height="124px" viewBox="0 0 267 124" version="1.1">
  <!-- Generator: Sketch 49.1 (51147) - http://www.bohemiancoding.com/sketch -->
  <title>Artboard</title>
  <desc>Created with Sketch.</desc>
  <defs/>
  <g id="Artboard" stroke="none" stroke-width="1" fill="none" fill-rule="evenodd">
    <g id="Group" transform="translate(0.000000, 30.000000)">
      <rect id="Rectangle" fill="#012069" x="198" y="15" width="64" height="14"/>
      <circle id="Oval-5" stroke="#DCDFE4" stroke-width="2" cx="227" cy="22" r="22" style="&#10;    stroke: #d1d2d4;&#10;"/>
      <rect id="Rectangle-2" fill="#012069" x="199" y="16" width="59" height="12"/>
      <rect id="Rectangle-2" fill="#012069" transform="translate(207.000000, 34.000000) scale(1, -1) translate(-207.000000, -34.000000) " x="205" y="28" width="4" height="12"/>
      <rect id="Rectangle-2" fill="#012069" transform="translate(247.000000, 35.000000) scale(1, -1) translate(-247.000000, -35.000000) " x="245" y="28" width="4" height="14"/>
      <path d="M121.456,23.168 C121.311999,23.4400014 121.104001,23.576 120.832,23.576 C120.623999,23.576 120.356002,23.4280015 120.028,23.132 C119.699998,22.8359985 119.256003,22.5080018 118.696,22.148 C118.135997,21.7879982 117.436004,21.4560015 116.596,21.152 C115.755996,20.8479985 114.720006,20.696 113.488,20.696 C112.255994,20.696 111.172005,20.8719982 110.236,21.224 C109.299995,21.5760018 108.516003,22.055997 107.884,22.664 C107.251997,23.272003 106.772002,23.975996 106.444,24.776 C106.115998,25.576004 105.952,26.4159956 105.952,27.296 C105.952,28.4480058 106.195998,29.3999962 106.684,30.152 C107.172002,30.9040038 107.815996,31.5439974 108.616,32.072 C109.416004,32.6000026 110.323995,33.0439982 111.34,33.404 C112.356005,33.7640018 113.399995,34.1199982 114.472,34.472 C115.544005,34.8240018 116.587995,35.2119979 117.604,35.636 C118.620005,36.0600021 119.527996,36.5919968 120.328,37.232 C121.128004,37.8720032 121.771998,38.6599953 122.26,39.596 C122.748002,40.5320047 122.992,41.695993 122.992,43.088 C122.992,44.5120071 122.748002,45.8519937 122.26,47.108 C121.771998,48.3640063 121.064005,49.4559954 120.136,50.384 C119.207995,51.3120046 118.072007,52.0439973 116.728,52.58 C115.383993,53.1160027 113.848009,53.384 112.12,53.384 C109.879989,53.384 107.952008,52.988004 106.336,52.196 C104.719992,51.403996 103.304006,50.3200069 102.088,48.944 L102.76,47.888 C102.952001,47.6479988 103.175999,47.528 103.432,47.528 C103.576001,47.528 103.759999,47.623999 103.984,47.816 C104.208001,48.008001 104.479998,48.2439986 104.8,48.524 C105.120002,48.8040014 105.503998,49.1079984 105.952,49.436 C106.400002,49.7640016 106.919997,50.0679986 107.512,50.348 C108.104003,50.6280014 108.783996,50.863999 109.552,51.056 C110.320004,51.248001 111.191995,51.344 112.168,51.344 C113.512007,51.344 114.711995,51.140002 115.768,50.732 C116.824005,50.323998 117.715996,49.7680035 118.444,49.064 C119.172004,48.3599965 119.727998,47.5240048 120.112,46.556 C120.496002,45.5879952 120.688,44.5520055 120.688,43.448 C120.688,42.247994 120.444002,41.2600039 119.956,40.484 C119.467998,39.7079961 118.824004,39.0600026 118.024,38.54 C117.223996,38.0199974 116.316005,37.5840018 115.3,37.232 C114.283995,36.8799982 113.240005,36.5360017 112.168,36.2 C111.095995,35.8639983 110.052005,35.4880021 109.036,35.072 C108.019995,34.6559979 107.112004,34.1240032 106.312,33.476 C105.511996,32.8279968 104.868002,32.0200048 104.38,31.052 C103.891998,30.0839952 103.648,28.8720073 103.648,27.416 C103.648,26.2799943 103.863998,25.1840053 104.296,24.128 C104.728002,23.0719947 105.359996,22.140004 106.192,21.332 C107.024004,20.523996 108.051994,19.8760024 109.276,19.388 C110.500006,18.8999976 111.895992,18.656 113.464,18.656 C115.224009,18.656 116.803993,18.9359972 118.204,19.496 C119.604007,20.0560028 120.879994,20.9119942 122.032,22.064 L121.456,23.168 Z M133.48,53 L131.008,53 L131.008,19.04 L133.48,19.04 L133.48,53 Z M159.064,51.392 C160.232006,51.392 161.295995,51.3320006 162.256,51.212 C163.216005,51.0919994 164.107996,50.9120012 164.932,50.672 C165.756004,50.4319988 166.539996,50.1400017 167.284,49.796 C168.028004,49.4519983 168.775996,49.0640022 169.528,48.632 L169.528,39.488 L163,39.488 C162.823999,39.488 162.676001,39.4320006 162.556,39.32 C162.435999,39.2079994 162.376,39.0800007 162.376,38.936 L162.376,37.592 L171.76,37.592 L171.76,49.664 C170.911996,50.256003 170.032005,50.7839977 169.12,51.248 C168.207995,51.7120023 167.232005,52.0999984 166.192,52.412 C165.151995,52.7240016 164.032006,52.9639992 162.832,53.132 C161.631994,53.3000008 160.320007,53.384 158.896,53.384 C156.447988,53.384 154.21201,52.9720041 152.188,52.148 C150.16399,51.3239959 148.428007,50.1560076 146.98,48.644 C145.531993,47.1319924 144.408004,45.3040107 143.608,43.16 C142.807996,41.0159893 142.408,38.6320131 142.408,36.008 C142.408,33.3839869 142.807996,31.0040107 143.608,28.868 C144.408004,26.7319893 145.543993,24.9080076 147.016,23.396 C148.488007,21.8839924 150.275989,20.7160041 152.38,19.892 C154.484011,19.0679959 156.839987,18.656 159.448,18.656 C160.744006,18.656 161.939995,18.7439991 163.036,18.92 C164.132005,19.0960009 165.151995,19.3559983 166.096,19.7 C167.040005,20.0440017 167.919996,20.4679975 168.736,20.972 C169.552004,21.4760025 170.335996,22.0559967 171.088,22.712 L170.44,23.768 C170.295999,24.0080012 170.096001,24.128 169.84,24.128 C169.695999,24.128 169.560001,24.0960003 169.432,24.032 C169.191999,23.9359995 168.844002,23.7120018 168.388,23.36 C167.931998,23.0079982 167.316004,22.6400019 166.54,22.256 C165.763996,21.8719981 164.792006,21.5280015 163.624,21.224 C162.455994,20.9199985 161.040008,20.768 159.376,20.768 C157.167989,20.768 155.176009,21.1199965 153.4,21.824 C151.623991,22.5280035 150.108006,23.5359934 148.852,24.848 C147.595994,26.1600066 146.628003,27.7599906 145.948,29.648 C145.267997,31.5360094 144.928,33.6559882 144.928,36.008 C144.928,38.408012 145.271997,40.5599905 145.96,42.464 C146.648003,44.3680095 147.611994,45.9799934 148.852,47.3 C150.092006,48.6200066 151.579991,49.6319965 153.316,50.336 C155.052009,51.0400035 156.96799,51.392 159.064,51.392 Z M181.6,19.04 C181.824001,19.04 181.999999,19.0679997 182.128,19.124 C182.256001,19.1800003 182.391999,19.303999 182.536,19.496 L204.52,48.92 C204.472,48.4399976 204.448,47.9760022 204.448,47.528 L204.448,19.04 L206.608,19.04 L206.608,53 L205.432,53 C205.063998,53 204.768001,52.8400016 204.544,52.52 L182.464,23.048 C182.512,23.5280024 182.536,23.9839978 182.536,24.416 L182.536,53 L180.4,53 L180.4,19.04 L181.6,19.04 Z M242.248,53 L240.352,53 C240.127999,53 239.944001,52.9400006 239.8,52.82 C239.655999,52.6999994 239.544,52.544001 239.464,52.352 L231.973678,33.2981667 L222.506418,33.2981667 L214.792,52.352 C214.728,52.5280009 214.616001,52.6799994 214.456,52.808 C214.295999,52.9360006 214.104001,53 213.88,53 L212.008,53 L225.904,19.04 L228.352,19.04 L242.248,53 Z M222.50276,33.3027519 L231.968909,33.3027519 L227.8,23.504 C227.687999,23.2319986 227.576001,22.9240017 227.464,22.58 C227.351999,22.2359983 227.240001,21.8720019 227.128,21.488 C227.015999,21.8720019 226.904001,22.2359983 226.792,22.58 C226.679999,22.9240017 226.568001,23.2399986 226.456,23.528 L222.50276,33.3027519 Z M250.072,50.912 L266.176,50.912 L266.176,53 L247.624,53 L247.624,19.04 L250.072,19.04 L250.072,50.912 Z" id="SIGNAL" fill="#FFFFFF" style="&#10;    fill: #012069;&#10;"/>
      <text id="civic" font-family="Lato-Bold, Lato" font-size="48" font-weight="bold" fill="#FFFFFF" style="&#10;    fill: #012069;&#10;">
        <tspan x="0" y="53">civic</tspan>
      </text>
    </g>
  </g>
</svg>